<svg xmlns="http://www.w3.org/2000/svg" version="1.1" xmlns:xlink="http://www.w3.org/1999/xlink" xmlns:svgjs="http://svgjs.dev/svgjs" width="1500" height="227" viewBox="0 0 1500 227"><g transform="matrix(1,0,0,1,-0.9090909090909918,-0.8562211109728679)"><svg viewBox="0 0 396 60" data-background-color="#000000" preserveAspectRatio="xMidYMid meet" height="227" width="1500" xmlns="http://www.w3.org/2000/svg" xmlns:xlink="http://www.w3.org/1999/xlink"><g id="tight-bounds" transform="matrix(1,0,0,1,0.2400000000000091,0.22631395003688226)"><svg viewBox="0 0 395.52 59.54737209992623" height="59.54737209992623" width="395.52"><g><svg viewBox="0 0 495.6495450424522 74.62233993174061" height="59.54737209992623" width="395.52"><g transform="matrix(1,0,0,1,0,10.313217747440277)"><svg viewBox="0 0 395.52 53.99590443686006" height="53.99590443686006" width="395.52"><g id="textblocktransform"><svg viewBox="0 0 395.52 53.99590443686006" height="53.99590443686006" width="395.52" id="textblock"><g><svg viewBox="0 0 395.52 53.99590443686006" height="53.99590443686006" width="395.52"><g transform="matrix(1,0,0,1,0,0)"><svg width="395.52" viewBox="1 -37.5 276.83 38" height="53.99590443686006" data-palette-color="#89939e"><g class="wordmark-text-0" data-fill-palette-color="primary" id="text-0"><path d="M5.35-21.75L1-21.75 1-24.5 4.85-25 5.35-25Q6.95-28.75 7.5-31.6L7.5-31.6 9.6-31.6 9.6-25 17.05-25 17.05-21.75 9.6-21.75 9.6-6.4Q9.6-4.7 10.18-3.95 10.75-3.2 12.15-3.2 13.55-3.2 15.9-4.15L15.9-4.15 17.55-1.3Q14.7 0.5 11.45 0.5 8.2 0.5 6.78-1.2 5.35-2.9 5.35-5.6L5.35-5.6 5.35-21.75ZM27.65-18.75L27.65-3.25 32-3.25 32 0 19.55 0 19.55-3.25 23.4-3.25 23.4-34.25 19.55-34.25 19.55-37.5 27.65-37.5 27.65-22.55Q32.8-25.5 37-25.5 41.2-25.5 42.82-22.95 44.45-20.4 44.45-15.9L44.45-15.9 44.45-3 48.55-3 48.55-0.9Q46.7 0.25 44.27 0.25 41.85 0.25 41.02-0.58 40.2-1.4 40.2-3.25L40.2-3.25 40.2-15.9Q40.2-18.8 39.45-20.28 38.7-21.75 36-21.75 33.3-21.75 27.65-18.75L27.65-18.75ZM72.7-14.2L72.7-14.2 72.7-11.55 55.05-11.55Q55.3-7.9 57.2-5.58 59.09-3.25 62.3-3.25L62.3-3.25Q64.4-3.25 66.07-3.7 67.75-4.15 68.4-4.53 69.05-4.9 70.2-5.65L70.2-5.65 72.05-2.85Q68.25 0.5 62.55 0.5 56.84 0.5 53.82-3.18 50.8-6.85 50.8-12.5 50.8-18.15 53.82-21.83 56.84-25.5 62.07-25.5 67.3-25.5 70-22.35 72.7-19.2 72.7-14.2ZM68.45-15.1Q68.15-18.15 66.62-19.95 65.09-21.75 62.27-21.75 59.45-21.75 57.65-19.93 55.84-18.1 55.25-15.1L55.25-15.1 68.45-15.1Z" fill="#89939e" data-fill-palette-color="primary"></path><path d="M97.05 0.5L97.05 0.5Q93.6 0.5 91.65-1.48 89.7-3.45 89.7-6.78 89.7-10.1 92.3-12.35 94.9-14.6 100-14.6L100-14.6 105.45-14.6 105.45-17.15Q105.45-21.75 101.05-21.75L101.05-21.75Q97.35-21.75 94.25-20.85L94.25-20.85 94.25-17.5 90.75-17.5 90.75-23.45Q93-24.4 96.07-24.95 99.15-25.5 101.2-25.5L101.2-25.5Q105.2-25.5 107.45-23.23 109.7-20.95 109.7-17.15L109.7-17.15 109.7-3 113.8-3 113.8-0.9Q111.95 0.25 109.55 0.25 107.15 0.25 106.3-0.55 105.45-1.35 105.45-3.25L105.45-3.25Q101.7 0.5 97.05 0.5ZM97.5-3.25L97.5-3.25Q101.8-3.25 105.45-8.1L105.45-8.1 105.45-11.3 99.95-11.3Q96.9-11.3 95.42-10.1 93.95-8.9 93.95-7.08 93.95-5.25 94.85-4.25 95.75-3.25 97.5-3.25ZM143.54 0L131.1 0 131.1-3.25 134.95-3.25 134.95-15.9Q134.95-18.8 134.2-20.28 133.45-21.75 130.77-21.75 128.1-21.75 123.4-19.25L123.4-19.25 123.4-3.25 127.25-3.25 127.25 0 115.3 0 115.3-3.25 119.15-3.25 119.15-21.75 115.3-21.75 115.3-25 122.45-25 122.95-22.75Q128-25.5 132.02-25.5 136.05-25.5 137.79-22.6L137.79-22.6Q142.95-25.5 147-25.5 151.04-25.5 152.67-22.95 154.29-20.4 154.29-15.9L154.29-15.9 154.29-3 158.4-3 158.4-0.9Q156.54 0.25 154.12 0.25 151.7 0.25 150.87-0.58 150.04-1.4 150.04-3.25L150.04-3.25 150.04-15.9Q150.04-18.8 149.29-20.28 148.54-21.75 145.97-21.75 143.4-21.75 138.9-19.5L138.9-19.5Q139.2-17.85 139.2-15.9L139.2-15.9 139.2-3.25 143.54-3.25 143.54 0ZM182.54-14.2L182.54-14.2 182.54-11.55 164.89-11.55Q165.14-7.9 167.04-5.58 168.94-3.25 172.14-3.25L172.14-3.25Q174.24-3.25 175.92-3.7 177.59-4.15 178.24-4.53 178.89-4.9 180.04-5.65L180.04-5.65 181.89-2.85Q178.09 0.5 172.39 0.5 166.69 0.5 163.67-3.18 160.64-6.85 160.64-12.5 160.64-18.15 163.67-21.83 166.69-25.5 171.92-25.5 177.14-25.5 179.84-22.35 182.54-19.2 182.54-14.2ZM178.29-15.1Q177.99-18.15 176.47-19.95 174.94-21.75 172.12-21.75 169.29-21.75 167.49-19.93 165.69-18.1 165.09-15.1L165.09-15.1 178.29-15.1ZM193.14-18.75L193.14-3.25 197.49-3.25 197.49 0 185.04 0 185.04-3.25 188.89-3.25 188.89-21.75 185.04-21.75 185.04-25 192.19-25 192.79-22.35Q194.49-23.3 195.54-23.83 196.59-24.35 198.57-24.93 200.54-25.5 202.39-25.5L202.39-25.5Q206.69-25.5 208.32-22.95 209.94-20.4 209.94-15.9L209.94-15.9 209.94-3 214.04-3 214.04-0.9Q212.19 0.25 209.77 0.25 207.34 0.25 206.52-0.58 205.69-1.4 205.69-3.25L205.69-3.25 205.69-15.9Q205.69-18.8 204.94-20.28 204.19-21.75 201.49-21.75 198.79-21.75 193.14-18.75L193.14-18.75ZM216.54-1.45L216.54-7.2 220.04-7.2 220.04-4.05Q221.94-3.3 224.66-3.3 227.39-3.3 228.81-4.17 230.24-5.05 230.24-6.35 230.24-7.65 229.16-8.47 228.09-9.3 224.06-11.45 220.04-13.6 218.44-15.08 216.84-16.55 216.84-18.95L216.84-18.95Q216.84-22.05 219.26-23.78 221.69-25.5 225.89-25.5 230.09-25.5 233.84-23.45L233.84-23.45 233.84-17.5 230.34-17.5 230.34-20.85Q228.14-21.75 225.66-21.75 223.19-21.75 222.14-20.83 221.09-19.9 221.09-18.8 221.09-17.7 221.89-17.05L221.89-17.05Q223.24-15.95 226.74-14.2L226.74-14.2Q231.19-11.75 232.84-10.25 234.49-8.75 234.49-6.4L234.49-6.4Q234.49-3.3 231.84-1.43 229.19 0.45 224.46 0.45 219.74 0.45 216.54-1.45L216.54-1.45ZM242.39-21.75L238.54-21.75 238.54-25 246.64-25 246.64-3.25 250.99-3.25 250.99 0 238.49 0 238.49-3.25 242.39-3.25 242.39-21.75ZM244.39-29.45Q243.29-29.45 242.59-30.25 241.89-31.05 241.89-32.18 241.89-33.3 242.66-34.15 243.44-35 244.54-35 245.64-35 246.34-34.2 247.04-33.4 247.04-32.27 247.04-31.15 246.26-30.3 245.49-29.45 244.39-29.45ZM261.08 0.5L261.08 0.5Q257.63 0.5 255.68-1.48 253.73-3.45 253.73-6.78 253.73-10.1 256.33-12.35 258.93-14.6 264.03-14.6L264.03-14.6 269.48-14.6 269.48-17.15Q269.48-21.75 265.08-21.75L265.08-21.75Q261.38-21.75 258.28-20.85L258.28-20.85 258.28-17.5 254.78-17.5 254.78-23.45Q257.03-24.4 260.11-24.95 263.18-25.5 265.23-25.5L265.23-25.5Q269.23-25.5 271.48-23.23 273.73-20.95 273.73-17.15L273.73-17.15 273.73-3 277.83-3 277.83-0.9Q275.98 0.25 273.58 0.25 271.18 0.25 270.33-0.55 269.48-1.35 269.48-3.25L269.48-3.25Q265.73 0.5 261.08 0.5ZM261.53-3.25L261.53-3.25Q265.83-3.25 269.48-8.1L269.48-8.1 269.48-11.3 263.98-11.3Q260.93-11.3 259.46-10.1 257.98-8.9 257.98-7.08 257.98-5.25 258.88-4.25 259.78-3.25 261.53-3.25Z" fill="#dedede" data-fill-palette-color="secondary"></path></g></svg></g></svg></g></svg></g></svg></g><g transform="matrix(1,0,0,1,408.26713713583615,0)"><svg viewBox="0 0 87.38240790661604 74.62233993174061" height="74.62233993174061" width="87.38240790661604"><g><svg xmlns="http://www.w3.org/2000/svg" xmlns:xlink="http://www.w3.org/1999/xlink" version="1.1" x="0" y="0" viewBox="53.59599999999996 121.94360519366552 936.8704949590827 800.0634249123443" style="enable-background:new 0 0 1024 1024;" xml:space="preserve" height="74.62233993174061" width="87.38240790661604" class="icon-icon-0" data-fill-palette-color="accent" id="icon-0"><g fill="#dedede" data-fill-palette-color="accent"><path d="M490 148.6c-14-31.2-48-15.2-80 20.8-54 60.7-220.1 71-283.7 42.5-63.2-28.3-62.7 22.5-62.7 22.5 3.9 549.4 321 504.9 321 504.9C698.2 629.1 490 148.6 490 148.6zM165.5 414.4c6.7-40.6 45.5-49 45.5-49 52.7-17 70.6 35.2 70.6 35.2C258.9 464.5 165.5 414.4 165.5 414.4zM364.3 634.5c-83.9 19.6-139.4-73-139.4-73C369.7 624.7 458 514.7 458 514.7S448.2 614.9 364.3 634.5zM353.4 391.6c0 0-8.7-54.5 45.8-64.3 0 0 38.1-10.9 63.2 21.8C462.3 349.1 403.5 437.4 353.4 391.6z" fill="#dedede" data-fill-palette-color="accent"></path><g fill="#dedede" data-fill-palette-color="accent"><path d="M363 389c0.6 4 0.1 0.8 0-1.3-0.2-3-0.2-6.1 0-9.1 0.1-1 0.2-2 0.3-2.9 0.2-2.6-0.2 0.8 0.1-0.8 0.4-2.2 0.8-4.5 1.4-6.7 0.6-2.3 1.4-4.7 2.3-6.9-0.8 1.9 0.4-0.8 0.8-1.5 0.7-1.3 1.4-2.6 2.1-3.8 0.6-1 1.3-2 2-3-1.1 1.4 1.3-1.6 1.7-1.9 1-1.1 2-2.1 3.1-3.1 1.4-1.3 2.1-1.8 2.7-2.2 5.7-3.9 10.8-6.1 17.5-7.7 2.7-0.7 5.5-1.2 8.3-1.8 0.3-0.1 0.7-0.1 1-0.2 2-0.5-2 0.2-0.6 0.1 0.9-0.1 1.8-0.2 2.8-0.3 2.6-0.2 5.3-0.3 7.9-0.2 6 0.2 12 1.3 18.1 3.9 8.4 3.6 15.1 9.6 20.7 16.7-0.5-4-1-8.1-1.6-12.1-0.5 0.7-1 1.4-1.5 2.1-0.5 0.8-1.1 1.5-1.7 2.3-0.3 0.5-0.7 0.9-1 1.4-1.6 2.2 0.5-0.5-0.4 0.5-4.9 6.1-9.9 12-15.4 17.5-7.3 7.3-13.5 12.6-21.5 17.6-2 1.2-4 2.4-6 3.5-1 0.5-2.1 1-3.1 1.5-0.6 0.3-1.2 0.6-1.8 0.8 1-0.4 0.2-0.1-0.3 0.1-2.3 0.8-4.6 1.6-6.9 2.2-1.1 0.3-2.2 0.5-3.3 0.7-0.6 0.1-1.3 0.2-1.9 0.3 1.1-0.1 0.6-0.1-0.2 0-2.7 0.2-5.4 0.2-8.1 0-1.2-0.1 0.1 0 0.3 0.1-0.8-0.1-1.6-0.3-2.4-0.5-1.5-0.3-2.9-0.7-4.3-1.2-1.8-0.6-1.3-0.4-2.4-0.9-1.3-0.6-2.6-1.3-3.8-2-3-1.7-5-3.3-7.5-5.5-9.6-8.6-23.8 5.5-14.1 14.1 10 9 21.7 14.9 35.3 16 11.6 0.9 23.1-2.6 33.4-7.7 18.2-9.1 33.6-24.2 46.3-39.8 3.4-4.2 6.7-8.4 9.7-12.9 2.7-4 1.1-8.7-1.6-12.1-17.5-22.3-45.8-30.2-72.9-24.4-15 3.2-29.2 9.5-39 21.6-8.1 10-12.4 21.9-14 34.5-0.8 6.8-0.8 13.6 0.2 20.4 0.8 5.3 7.5 8.3 12.3 7C361.7 399.7 363.9 394.3 363 389z" fill="#dedede" data-fill-palette-color="accent"></path><path d="M361.6 624.9c-27.5 6.3-53.8-0.7-77-15.8-9.7-6.3-18-13.3-26.6-22.1-3.6-3.7-7.2-7.5-10.5-11.5-1.4-1.6-2.7-3.3-4.1-5-0.2-0.3-2.1-2.7-1.1-1.4 0.9 1.2-1-1.4-1.3-1.8-2.6-3.5-5.2-7.1-7.5-10.8-4.6 4.6-9.1 9.1-13.7 13.7 47 20.3 98.8 27.7 148.5 13 31.2-9.2 60.1-26 83.9-48.1 4.5-4.2 9-8.5 12.9-13.3-5.7-2.4-11.4-4.7-17.1-7.1 0 0.2-0.1 0.5-0.1 0.6 0.1 0.2-0.1 0.6-0.1 0.8 0 0.9 0.5-3.3 0.2-1.2-0.4 2.4-0.8 4.8-1.2 7.2-1.6 8.2-3.8 16.3-6.5 24.2-3.6 10.7-6.9 18.3-13.2 28.9-6.8 11.4-13.6 20-24 29C391.7 614 377 621.2 361.6 624.9c-12.5 3-7.2 22.3 5.3 19.3 30.8-7.4 56.3-26.6 73.7-52.9 12.1-18.4 20.3-39.7 24.9-61.2 1.1-5.1 2-10.2 2.5-15.4 0.8-8.3-11.8-13.7-17.1-7.1-2.9 3.6-6.2 7-9.6 10.2-3.7 3.6-7.6 7.1-11.6 10.4-1.1 0.9-2.2 1.8-3.3 2.7-0.7 0.5-2.2 1.7-0.6 0.5-0.7 0.5-1.4 1.1-2.1 1.6-2.8 2.1-5.6 4.1-8.5 6.1-14 9.4-28.7 16.9-43.5 22-19.4 6.8-38.4 10-58.6 10-28.6 0-57-6.9-83.2-18.2-4.2-1.8-8.7-1.8-12.1 1.6-3.1 3.1-3.8 8.3-1.6 12.1 7.1 11.8 16.2 22.7 25.7 32.6 19.1 19.9 42.8 36.8 69.7 44.1 18.1 5 37 5.1 55.3 0.9C379.5 641.3 374.2 622 361.6 624.9z" fill="#dedede" data-fill-palette-color="accent"></path><path d="M175.1 417c1.3-7.6 3.6-14.3 7.8-20.8 1.6-2.4 2.5-3.6 4.9-6.1 1.1-1.1 2.2-2.2 3.3-3.2 0.6-0.5 1.2-1.1 1.9-1.6 1.3-1.1-0.2 0.1 0.6-0.5 4-3 8.4-5.5 13-7.5 1.5-0.7-1.8 0.6 0.5-0.2 0.8-0.3 1.5-0.6 2.2-0.8 1.1-0.4 2.2-0.7 3.3-1 11.2-3.2 21.1-4.6 31.3-1.2 0.6 0.2 1.2 0.4 1.8 0.7 1.7 0.6-2-1 0.7 0.3 1.1 0.5 2.2 1.1 3.3 1.7 1.2 0.7 2.3 1.4 3.5 2.2 0.6 0.4 1.2 0.8 1.8 1.3-1.1-0.8-0.2-0.2 0.4 0.3 1.8 1.6 3.5 3.2 5.2 4.9 0.9 1 1.8 2 2.6 3 0.3 0.4 0.6 0.8 1 1.2-1-1.3-0.4-0.5 0.2 0.4 2.3 3.4 4.5 6.8 6.2 10.5 0.3 0.6 0.6 1.3 0.9 1.9 1.1 2.3-0.5-1.4-0.2-0.6 0.1 0.5 0.4 0.9 0.5 1.4 0-1.8 0-3.5 0-5.3-3.4 9.3-8.8 16.1-17 20.4-0.9 0.5-1.9 0.9-2.8 1.4-1.4 0.6 1.4-0.5-0.1 0-0.6 0.2-1.1 0.4-1.7 0.6-2.4 0.8-4.9 1.5-7.4 1.9-0.5 0.1-3.2 0.5-2.3 0.4 0.9-0.1-1.8 0.2-2.3 0.2-2.6 0.2-5.3 0.2-7.9 0.2-2.3-0.1-4.7-0.2-7-0.4-0.4 0-4.1-0.5-2-0.2-1.4-0.2-2.8-0.4-4.2-0.7-4.7-0.8-9.3-1.9-13.9-3.2-4.4-1.2-8.7-2.6-12.9-4.2-1.9-0.7-3.8-1.4-5.7-2.2-0.8-0.3-1.5-0.6-2.3-0.9-2.8-1.1 0.2 0.1-0.9-0.4-3.7-1.6-7.4-3.3-11-5.2-11.3-6.1-21.5 11.2-10.1 17.3 13.2 7.1 27.8 12.5 42.4 16.1 24.3 6 52.6 6.9 72.5-10.7 4.9-4.4 9.1-10 12-15.9 2.4-4.8 5.2-10.1 3.6-15.5-2.3-7.5-7.2-14.8-12-20.9-7.5-9.5-17.2-16.9-28.7-21-13.8-4.9-28.3-3.2-42.1 0.7-26.5 7.5-47.4 28.3-52.2 55.9-0.9 5.3 1.4 10.8 7 12.3C167.7 425.3 174.2 422.4 175.1 417z" fill="#dedede" data-fill-palette-color="accent"></path><path d="M498.6 143.5c-5.3-11.4-14.8-19.8-27.5-21.3-12.1-1.5-24.3 3.8-34.3 10.2-13.4 8.5-24.4 19.7-35.1 31.3-6.8 7.3-12.2 11.4-20.3 16.6-36.4 23-82.7 32-125.5 35.4-22.9 1.8-46 2-68.9-0.1-17.1-1.6-35.5-4.5-52.8-11.1-0.8-0.3-1.5-0.6-2.3-0.9 2.3 0.9-0.9-0.4-1.3-0.6-3.9-1.7-7.8-3.4-11.9-4.8-6.1-2.1-12.2-3.6-18.6-4.4-9.1-1.1-18.4-0.1-26.6 4.2-10.8 5.7-17.3 17.4-19.2 29.2-0.8 4.8-0.7 9.2-0.7 14.1 0.2 15.8 0.6 31.6 1.4 47.3 1.4 28.1 3.7 56.2 7.2 84.1 6 46.7 15 93.1 29.7 137.9 11.4 34.6 25.9 68.4 45.1 99.4 15.2 24.6 33.3 47.7 54.4 67.6 17.4 16.3 36.8 30.6 57.8 41.9 17.4 9.3 35.9 16.8 54.9 21.9 14.9 4 30.2 6.7 45.6 8 9.3 0.8 18.6 1 27.9 0.5 14.1-0.8 26.8-7.2 39.4-13.2 33.9-15.9 64.7-39 88.1-68.4 22-27.6 37.7-59.5 47.5-93.4 9.9-34.1 14.2-69.9 14.8-105.4 0.7-35.8-2.4-71.5-7.7-106.9-4.8-32-11.5-63.7-19.8-95-6.6-25.1-14.2-49.9-22.6-74.4-4.9-14.1-10-28.1-15.7-41.9C500.8 148.7 499.7 146.1 498.6 143.5c-2.1-5-9.4-6.1-13.7-3.6-5.1 3-5.7 8.7-3.6 13.7 0.9 2.1-0.2-0.5-0.4-0.8 0.6 1.4 1.2 2.9 1.8 4.3 2.2 5.4 4.3 10.8 6.4 16.3 7.3 19.3 13.9 38.8 20 58.4 8.5 27.7 16 55.8 22 84.1 3.4 16 6.4 32.2 8.9 48.4 1.5 9.6 2.1 14.3 3.2 23.4 1 8.5 1.9 17.1 2.5 25.6 2.7 34.3 2.8 68.9-1.4 103-0.1 1.1-0.3 2.2-0.4 3.2 0.2-1.9-0.1 1-0.2 1.5-0.3 2.2-0.6 4.3-1 6.5-0.7 4.1-1.4 8.2-2.2 12.4-1.6 8.3-3.5 16.6-5.8 24.7-2.2 8.1-4.7 16.1-7.6 24-3.2 8.9-5.1 13.2-9 21.5-3.6 7.5-7.6 14.9-11.9 22-4.1 6.7-9.6 14.8-13.7 20.1-4.2 5.4-10.7 12.9-16.3 18.6-6.1 6.3-12.6 12.2-19.4 17.7-3.9 3.2-5.3 4.2-9.7 7.4-3.7 2.6-7.4 5.2-11.3 7.6-8.1 5.1-16.5 9.8-25.1 14-9.4 4.6-17 7.7-26.8 11.3-5.8 2.1 2 0.3-0.2 0.5-5.7 0.5-11.3 0.8-17 0.8-5.2 0-10.5-0.3-15.7-0.7-3.1-0.2-6.2-0.5-9.3-0.9-0.8-0.1-1.6-0.2-2.3-0.3-2.4-0.3 2.7 0.4-0.3 0-1.8-0.3-3.5-0.5-5.3-0.8-16.2-2.7-32.2-7-47.6-12.8-2.1-0.8-4.3-1.7-6.4-2.5-0.4-0.2-2.4-1-0.7-0.3 1.6 0.7-0.1 0-0.5-0.2-1.2-0.5-2.4-1-3.6-1.6-4.5-2-9-4.2-13.4-6.5-9.4-4.9-18.5-10.4-27.2-16.5-2.4-1.6-4.7-3.3-7-5.1-1.1-0.8-2.2-1.6-3.3-2.5-0.1-0.1 1.3 1.1-0.2-0.2-0.7-0.5-1.3-1.1-2-1.6-4.6-3.7-9.1-7.6-13.5-11.6-9.6-8.8-18.6-18.2-27-28.2-2.3-2.7-4.5-5.5-6.7-8.3-0.5-0.7-1.4-1.8-0.3-0.4-0.6-0.7-1.1-1.4-1.6-2.2-1.1-1.5-2.2-2.9-3.3-4.4-4.4-6-8.6-12.2-12.6-18.5-8.7-13.8-16.6-28.1-23.6-42.9-4-8.3-7.2-15.8-10.1-23.1-3.6-8.8-6.9-17.8-10-26.8-6.8-19.9-12.4-40.1-17.2-60.5-11.4-49.4-17.6-99.8-20.5-150.3-0.9-14.9-1.5-29.9-1.8-44.8-0.2-7.8-0.7-15.6-0.2-23.4 0-0.6 0.4-3 0.1-0.8-0.4 2.3 0.2-0.9 0.3-1.5 0.5-2.2 1.2-4.3 1.9-6.4 0.1-0.2-1.1 2.1 0 0.2 0.3-0.5 0.5-1 0.8-1.5 0.6-1.2 1.4-2.3 2.1-3.3-1.7 2.5 0.9-0.8 1.6-1.5 0.4-0.4 0.9-0.8 1.4-1.2-1.7 1.4-0.3 0.3 0.6-0.3 0.6-0.3 1.2-0.6 1.8-1 1.3-0.8-1.6 0.4 0.5-0.2 1.8-0.5 3.4-1 5.3-1.3 1.5-0.3-1.7 0.1-0.1 0 0.4 0 0.9-0.1 1.3-0.1 0.9 0 1.9-0.1 2.8-0.1 1.2 0 2.3 0.1 3.5 0.2 1.9 0.1 0.8 0 2.8 0.4 11 2.1 20.6 7 31 10.7 17.8 6.4 37 9.3 55.7 11 45.5 4.2 92.7 0.4 137.1-10.8 21-5.3 41.8-12.6 60.7-23.2 8.4-4.7 16.4-10.2 23.6-16.5 9.9-8.6 17.9-19.1 28-27.5 8.2-6.9 18.3-14.3 29.2-15.5-1.4 0.2 1.7 0 2.1 0 0.5 0 2.8 0.2 2.2 0.1 1.7 0.3 2.1 0.5 4.1 1.6 1.3 0.7 2.3 1.5 3.9 3.6 0.8 1 2.6 4.4 3.6 6.4 2.3 4.9 9.3 6.1 13.7 3.6C500 154.3 500.9 148.5 498.6 143.5z" fill="#dedede" data-fill-palette-color="accent"></path></g></g><g fill="#dedede" data-fill-palette-color="accent"><g fill="#dedede" data-fill-palette-color="accent"><path d="M466.9 760.6c12.6 31.7 29.2 60.4 51.6 86.2 16.1 18.5 35.1 34.6 55.6 48 13.7 8.9 28.2 16.1 43.4 22.1 12.4 5 25.8 5 39.1 5.1 42.4 0.3 84.2-9 122.1-28.2 32.7-16.6 61.7-41.2 85-69.4 24.2-29.3 43.7-61.6 59.3-96.2 15.5-34.5 27.9-70.2 37.5-106.8 8.1-30.8 14.3-62.2 19-93.7 3.9-26.3 7.1-52.7 9.1-79.2 0.8-11.1 1.4-22.3 1.8-33.4 0.3-10.6-0.3-21.7-4.2-31.7-5-13-12.8-24.1-25-31.3-11.5-6.8-25.8-9.3-39-8-19.4 1.9-36.4 8.1-54.3 15.8 2.4-1 4.8-2 7.2-3-11 4.6-22.6 7.3-34.3 8.9 2.7-0.4 5.3-0.7 8-1.1-23.3 3.1-47 2-70.3-1.1 2.7 0.4 5.3 0.7 8 1.1-33.3-4.5-66.2-13.3-97.2-26.3 2.4 1 4.8 2 7.2 3-13-5.5-25.7-11.7-37.6-19.2-2.5-1.6-5-3.2-7.5-5-1.2-0.9-2.5-1.8-3.7-2.7-3.7-2.7 5.5 4.4 3.3 2.6-0.5-0.4-1-0.8-1.5-1.2-4.3-3.5-8.4-7.3-12.1-11.5-10.5-11.7-31.9-11.5-42.4 0-11.5 12.5-11.2 29.9 0 42.4 12 13.4 27.6 24 43.2 32.8 19.2 10.7 39.8 19.2 60.6 26.1 20 6.7 40.5 11.8 61.2 15.2 22.7 3.7 45.7 6.2 68.7 5.4 12.8-0.5 25.7-1.9 38.2-4.4 12-2.4 22.9-6.6 34.1-11.4-2.4 1-4.8 2-7.2 3 11-4.6 22.3-8.6 34.2-10.3-2.7 0.4-5.3 0.7-8 1.1 4.7-0.6 9.4-0.8 14.1-0.2-2.7-0.4-5.3-0.7-8-1.1 2.9 0.4 5.8 1.1 8.5 2.2-2.4-1-4.8-2-7.2-3 1.7 0.7 3.3 1.7 4.9 2.6 3.4 2-7.1-6.2-3.5-2.7 0.5 0.5 1.1 1 1.6 1.6 2 1.9 2.6 5.2-2.9-3.9 0.4 0.7 1 1.3 1.4 2 0.9 1.4 1.6 2.9 2.2 4.4-1-2.4-2-4.8-3-7.2 1.4 3.4 2.3 6.9 2.8 10.6-0.4-2.7-0.7-5.3-1.1-8 1.1 7.9 0.4 16.2 0 24.2-0.7 14.4-1.8 28.8-3.2 43.2-1.2 11.8-2.5 23.7-4.1 35.5 0.4-2.7 0.7-5.3 1.1-8-6.9 51.3-17.5 102.3-33.7 151.6-5.1 15.5-10.7 30.7-17 45.8 1-2.4 2-4.8 3-7.2-12 28.5-26.4 56-44.2 81.3-2.2 3.2-4.5 6.3-6.8 9.4-0.5 0.7-1.1 1.3-1.6 2 0.5-0.6 5.4-7 2.6-3.4-1.2 1.6-2.5 3.1-3.7 4.7-4.7 5.8-9.7 11.5-14.9 16.9-5.2 5.5-10.7 10.8-16.4 15.8-2.7 2.4-5.5 4.8-8.4 7.1-0.8 0.6-1.5 1.2-2.3 1.8-3.6 2.8 2.8-2.2 3.4-2.6-1.6 1.1-3.1 2.4-4.7 3.5-13.8 10-28.6 18.5-44.3 25.2 2.4-1 4.8-2 7.2-3-18.3 7.7-37.5 12.8-57.1 15.5 2.7-0.4 5.3-0.7 8-1.1-19.6 2.6-39.4 2.8-59.1 1.2 2.7 0.4 5.3 0.7 8 1.1-3.8-1.1-7.5-2.6-11.1-4.2 2.4 1 4.8 2 7.2 3-15.1-6.4-29.3-14.7-42.6-24.3-1.1-0.8-2.1-1.6-3.2-2.4-4.9-3.7 4.9 3.9 2 1.6-2.4-1.9-4.7-3.8-7-5.7-4.6-3.9-9.1-8-13.4-12.3-4.8-4.7-9.4-9.7-13.8-14.8-2.1-2.5-4.1-5-6.1-7.5-2.2-2.7 4.4 5.7 2.3 2.9-0.5-0.7-1.1-1.4-1.6-2.1-1.2-1.6-2.4-3.3-3.6-4.9-10.5-14.9-19.3-31-26.4-47.8 1 2.4 2 4.8 3 7.2-0.8-2-1.6-4-2.4-6-3-7.5-6.5-13.7-13.8-17.9-6.4-3.8-15.9-5.4-23.1-3-7.3 2.3-14.3 6.8-17.9 13.8C466.4 744.2 464 753.2 466.9 760.6L466.9 760.6z" fill="#dedede" data-fill-palette-color="accent"></path></g></g><g fill="#dedede" data-fill-palette-color="accent"><path d="M587.8 508.9c22-33 59.3-24.9 59.3-24.9 53 6 48 58.9 48 58.9C649.9 590 587.8 508.9 587.8 508.9z" fill="#dedede" data-fill-palette-color="accent"></path><g fill="#dedede" data-fill-palette-color="accent"><path d="M596.4 514c8-11.7 19.1-17.9 32.4-20.3 0.3-0.1 2-0.3 0.2 0 0.6-0.1 1.2-0.1 1.8-0.2 1.1-0.1 2.3-0.2 3.4-0.2 2.2-0.1 4.4-0.1 6.5 0.1 0.8 0 1.5 0.1 2.3 0.2 2.3 0.2 0.6-0.2-0.3-0.1 0.5-0.1 1.2 0.2 1.7 0.3 6.5 1 13.8 2.5 18.8 5 5.6 2.9 7.7 4.6 11.8 9.2 0.4 0.4 0.8 0.9 1.2 1.4-1.1-1.4-0.2-0.2 0 0.1 0.7 1.1 1.5 2.1 2.1 3.3 0.6 1 1.1 1.9 1.6 2.9 0.3 0.5 0.5 1 0.7 1.5 1 1.9 0.1 0 0.3 0.6 1.6 4 2.7 8.2 3.5 12.5 0.4 1.9 0.3 2.1 0.2 0.8 0.1 1 0.2 1.9 0.3 2.9 0.1 1.5 0.2 3.1 0.2 4.6 0 1.5 0 3-0.1 4.4 1-2.4 2-4.7 2.9-7.1-3.9 4-7 6.4-12.1 9-1.5 0.7-2.2 1-4.7 1.7-1.1 0.3-2.2 0.5-3.3 0.8-2.2 0.5 0.1 0.2-2.1 0.3-2.2 0.1-4.4 0.1-6.7 0-2.2-0.1 0 0.1-1.6-0.2-1.3-0.2-2.5-0.5-3.8-0.8-2.2-0.5-4.4-1.2-6.5-2-2.8-1-2.2-0.7-4.9-2.1-4.4-2.1-8.5-4.6-12.5-7.3-4.6-3.1-6.2-4.3-10.1-7.6-6-5.1-11.7-10.6-17-16.4-2-2.1-3.9-4.3-5.7-6.5-1-1.3-3.7-4.7-0.7-0.8-3.3-4.3-8.6-6.6-13.7-3.6-4.2 2.5-6.9 9.4-3.6 13.7 9.7 12.7 21.2 23.9 33.9 33.6 19 14.5 44.6 26.1 68.3 16.6 9.7-3.9 23.4-11.6 23.9-23.1 0.3-7-0.7-14.3-2.4-21.1-2.7-10.5-7.9-20.5-15.5-28.3-4.6-4.6-10.1-8.5-16-11.2-3.2-1.5-6.6-2.8-10-3.8-1.8-0.5-3.7-1-5.5-1.3-0.9-0.2-1.7-0.3-2.6-0.5-0.6-0.1-6.4-0.9-4.1-0.6 1.5 0.2-0.9-0.2-1.2-0.2-2.4-0.4-4.7-0.7-7.1-0.8-6.1-0.4-12.2 0.2-18.2 1.3-18.1 3.3-33.1 14.3-43.4 29.3-3.1 4.5-0.8 11.1 3.6 13.7C587.7 520.4 593.4 518.4 596.4 514z" fill="#dedede" data-fill-palette-color="accent"></path></g></g><g fill="#dedede" data-fill-palette-color="accent"><path d="M558.2 723.7c0.8-1.3 56.7-87.4 136.3-66.3 80.2 21.2 86.8 118 86.8 118S699.5 667 558.2 723.7z" fill="#dedede" data-fill-palette-color="accent"></path><g fill="#dedede" data-fill-palette-color="accent"><path d="M566.9 728.8c0.6-0.9 1.2-1.8 1.9-2.7 0.7-0.9 1.3-1.9 2-2.8 0.4-0.5 0.8-1.1 1.2-1.6 1.5-2-1.2 1.5 0.5-0.7 5.7-7.1 11.8-13.9 18.3-20.2 17.4-16.7 38.2-30.4 62.5-35.2 25.8-5.1 55.3 3.4 74.9 20.2 4.6 4 8.9 8.3 12.8 13 2.9 3.5 6.4 8.4 9.4 13.5 2.9 4.9 5.6 9.9 7.9 15.1 1.3 2.9 0.9 1.9 2.2 5.2 1 2.4 1.9 4.9 2.7 7.4 3 8.7 5.3 17.7 6.8 26.8 0.3 1.5 0.5 3 0.7 4.5 0.4 2.6-0.2-1.8-0.1-0.5 0.1 0.5 0.1 1.1 0.2 1.6 0.1 1 0.2 2 0.3 3 6.2-1.7 12.4-3.4 18.6-5-10.9-14.4-25-26.4-39.6-36.8-31.4-22.3-69.1-35.3-107.7-36.2-29.8-0.7-59.5 5.8-87.1 16.7-5 2-8.5 6.7-7 12.3 1.3 4.8 7.3 9 12.3 7 42.6-16.9 88.2-21.7 131.5-7.3 8.9 3 14.5 5.3 22.7 9.5 7.1 3.6 14 7.6 20.6 12.1 2.9 1.9 5.7 3.9 8.5 6 0.6 0.5 1.3 1 1.9 1.4 0.9 0.7-0.4-0.3-0.5-0.4 0.4 0.3 0.8 0.6 1.2 0.9 1.2 1 2.5 2 3.7 3 4.2 3.5 8.2 7.1 12 10.9 3 2.9 5.9 6 8.6 9.2 1 1.2 4.6 5.8 1.5 1.7 2.7 3.6 6.6 5.9 11.3 4.6 4-1.1 7.6-5.3 7.3-9.6-2.5-35.8-18-73.9-43.7-99-22.2-21.7-53.8-34.2-84.9-32.1-29.5 2.1-56 16.1-78.1 35-13.1 11.3-25.7 24.7-35 39.3C542.7 729.6 560 739.6 566.9 728.8z" fill="#dedede" data-fill-palette-color="accent"></path></g></g><g fill="#dedede" data-fill-palette-color="accent"><path d="M761.7 563.5c0 0 13.9-51.3 65.6-38.3 0 0 37.8 5.6 46.8 44.2C874.2 569.4 787.6 623.5 761.7 563.5z" fill="#dedede" data-fill-palette-color="accent"></path><g fill="#dedede" data-fill-palette-color="accent"><path d="M771.4 566.1c0.3-1.2 0.8-2.4 1.2-3.6 0.2-0.5 0.4-1.1 0.6-1.6-1.2 3.2-0.3 0.6 0.1-0.2 0.8-1.7 1.6-3.3 2.5-4.9 1-1.8 2-3.5 3.2-5.1 0.3-0.5 2.2-3 1.5-2.1-0.8 1 0.2-0.3 0.5-0.5 0.4-0.5 0.9-1 1.3-1.5 1.7-1.9 3.5-3.6 5.4-5.3 0.4-0.4 0.9-0.8 1.4-1.1-1.4 1.1-0.2 0.2 0.1 0 1.3-0.9 2.5-1.7 3.8-2.4 3.1-1.7 3.4-1.8 5.9-2.6 1.5-0.5 2.9-0.9 4.4-1.2 1.9-0.4 2.9-0.5 3.8-0.6 6.2-0.4 11.7 0.3 17.7 1.6 1.9 0.4 3.8 0.8 5.7 1.4 1.7 0.5 3.4 1.2 5.1 1.8 2.1 0.8-1.1-0.6 1.5 0.6 1.3 0.6 2.5 1.2 3.7 1.9 11.9 6.5 20.2 16.9 23.7 31.5 1.5-3.8 3.1-7.5 4.6-11.3-2.7 1.7-5.5 3.2-8.3 4.6-3 1.6-6.1 3.1-9.2 4.5-1.7 0.8-3.4 1.6-5.2 2.3 1.8-0.8-0.6 0.2-1.2 0.5-1.1 0.4-2.2 0.9-3.3 1.3-4.4 1.6-8.8 3.1-13.3 4.4-2.2 0.6-4.4 1.1-6.6 1.6-2.1 0.4-5.9 1.1-6.8 1.2-2.9 0.4-8.9 0.7-13 0.5-1.3-0.1-2.5-0.2-3.7-0.3 1.8 0.2-0.9-0.2-1.5-0.3-2.3-0.4-4.5-1.1-6.7-1.8-0.6-0.2-1.2-0.4-1.7-0.6 1.3 0.5 0 0-0.6-0.3-1.1-0.6-2.2-1.1-3.3-1.8-0.7-0.4-2.8-1.8-2.5-1.6 0.1 0.1-2-1.7-2.7-2.4-2.2-2.1-3.1-3.3-4.4-5.1-1.9-2.9-3.5-6-4.9-9.1-2.2-4.9-9.4-6.1-13.7-3.6-5.1 3-5.8 8.7-3.6 13.7 10.1 22.8 32 34.3 56.4 33.2 20.2-1 39.8-8.2 57.8-17.1 4-2 8.1-4.1 11.9-6.5 3.9-2.4 5.7-6.9 4.6-11.3-6.4-25.9-27.1-45.3-53-51-13.5-2.9-27.3-4-40.4 1.2-12.3 4.9-22 13.6-29.2 24.6-3.8 5.8-7.2 12.5-9 19.3C748.7 573.3 768 578.6 771.4 566.1z" fill="#dedede" data-fill-palette-color="accent"></path></g></g></svg></g></svg></g></svg></g><defs></defs></svg><rect width="395.52" height="59.54737209992623" fill="none" stroke="none" visibility="hidden"></rect></g></svg></g></svg>